# This file uses centimeters as units for non-parametric coordinates.

v -4.000000 0.000000 2.000000
v 4.000000 0.000000 2.000000
v -4.000000 3.130449 2.000000
v 4.000000 3.130449 2.000000
v -4.000000 3.130449 -2.000000
v 4.000000 3.130449 -2.000000
v -4.000000 0.000000 -2.000000
v 4.000000 0.000000 -2.000000
v -4.000000 4.527971 0.422410
v 4.000000 4.527971 0.422410
v 4.000000 4.527971 -0.422410
v -4.000000 4.527971 -0.422410
v -4.000000 3.479829 1.851125
v -4.000000 3.829210 1.625977
v -4.000000 4.178591 1.212622
v 4.000000 3.479829 1.851125
v 4.000000 3.829210 1.625977
v 4.000000 4.178591 1.212622
v 4.000000 3.479829 -1.851125
v 4.000000 3.829210 -1.625977
v 4.000000 4.178591 -1.212622
v -4.000000 3.479829 -1.851125
v -4.000000 3.829210 -1.625977
v -4.000000 4.178591 -1.212622
v -4.000000 4.385972 0.905657
v 4.000000 4.385972 0.905657
v 4.000000 4.385972 -0.905657
v -4.000000 4.385972 -0.905657
vt 0.017685 0.239880
vt 0.532847 0.239880
vt 0.532847 0.441467
vt 0.017685 0.441467
vt 0.632175 0.747518
vt 0.330413 0.747518
vt 0.330413 0.983681
vt 0.632175 0.983681
vt 0.018130 0.214534
vt 0.533356 0.214534
vt 0.533356 0.012923
vt 0.018130 0.012923
vt 0.015312 0.746350
vt 0.314842 0.746350
vt 0.314842 0.980766
vt 0.015312 0.980766
vt 0.017468 0.714080
vt 0.526850 0.714080
vt 0.526850 0.459389
vt 0.017468 0.459389
vt 0.799284 0.507779
vt 0.800071 0.010681
vt 0.852570 0.010717
vt 0.851800 0.507869
vt 0.662740 0.507731
vt 0.662700 0.010640
vt 0.686299 0.010641
vt 0.712126 0.010645
vt 0.745757 0.010655
vt 0.768776 0.010664
vt 0.768818 0.507721
vt 0.745798 0.507724
vt 0.712165 0.507726
vt 0.686338 0.507729
vt 0.989980 0.010866
vt 0.989223 0.508088
vt 0.965617 0.508051
vt 0.939782 0.508011
vt 0.906138 0.507958
vt 0.883110 0.507921
vt 0.883874 0.010742
vt 0.906899 0.010765
vt 0.940540 0.010802
vt 0.966375 0.010834
vt 0.996410 0.695242
vt 0.653829 0.695242
vt 0.666580 0.725165
vt 0.685863 0.755087
vt 0.721265 0.785010
vt 0.747554 0.802771
vt 0.788942 0.814933
vt 0.861297 0.814933
vt 0.902685 0.802771
vt 0.928975 0.785010
vt 0.964377 0.755087
vt 0.983659 0.725165
vt 0.650897 0.876116
vt 0.993478 0.876116
vt 0.980727 0.906039
vt 0.961445 0.935962
vt 0.926043 0.965885
vt 0.899753 0.983646
vt 0.858365 0.995807
vt 0.786010 0.995807
vt 0.744623 0.983646
vt 0.718333 0.965885
vt 0.682931 0.935962
vt 0.663648 0.906039
vn 0.000000 0.000000 1.000000
vn 0.000000 0.000000 1.000000
vn 0.000000 0.000000 1.000000
vn 0.000000 0.000000 1.000000
vn 0.000000 0.989807 0.142415
vn 0.000000 0.989807 0.142415
vn 0.000000 0.989807 -0.142415
vn 0.000000 0.989807 -0.142415
vn 0.000000 0.000000 -1.000000
vn 0.000000 0.000000 -1.000000
vn 0.000000 0.000000 -1.000000
vn 0.000000 0.000000 -1.000000
vn 0.000000 -1.000000 0.000000
vn 0.000000 -1.000000 0.000000
vn 0.000000 -1.000000 0.000000
vn 0.000000 -1.000000 0.000000
vn 1.000000 0.000000 0.000000
vn 1.000000 0.000000 0.000000
vn 1.000000 0.000000 0.000000
vn 1.000000 0.000000 0.000000
vn -1.000000 0.000000 0.000000
vn -1.000000 0.000000 0.000000
vn -1.000000 0.000000 0.000000
vn -1.000000 0.000000 0.000000
vn 0.000000 0.392005 0.919963
vn 0.000000 0.392005 0.919963
vn 0.000000 0.468531 0.883447
vn 0.000000 0.468531 0.883447
vn 0.000000 0.621767 0.783202
vn 0.000000 0.696511 0.717546
vn 0.000000 0.786375 0.617750
vn 0.000000 0.808033 0.589138
vn 0.000000 0.881516 0.472154
vn 0.000000 0.925585 0.378541
vn 1.000000 -0.000000 0.000000
vn 1.000000 0.000000 0.000000
vn 1.000000 0.000000 0.000000
vn 1.000000 -0.000000 0.000000
vn 1.000000 -0.000000 0.000000
vn 1.000000 -0.000000 0.000000
vn 1.000000 0.000000 0.000000
vn 1.000000 -0.000001 0.000000
vn 1.000000 -0.000001 0.000000
vn 1.000000 0.000000 0.000000
vn 0.000000 0.392005 -0.919963
vn 0.000000 0.392005 -0.919963
vn 0.000000 0.468531 -0.883447
vn 0.000000 0.468531 -0.883447
vn 0.000000 0.621767 -0.783202
vn 0.000000 0.696511 -0.717546
vn 0.000000 0.786375 -0.617750
vn 0.000000 0.808033 -0.589138
vn 0.000000 0.881516 -0.472154
vn 0.000000 0.925585 -0.378541
vn -1.000000 -0.000000 0.000000
vn -1.000000 0.000000 0.000000
vn -1.000000 0.000000 0.000000
vn -1.000000 -0.000000 0.000000
vn -1.000000 -0.000000 0.000000
vn -1.000000 -0.000000 0.000000
vn -1.000000 0.000000 0.000000
vn -1.000000 -0.000001 0.000000
vn -1.000000 -0.000001 0.000000
vn -1.000000 0.000000 0.000000
f 1/1/1 2/2/2 3/4/3
f 3/4/3 2/2/2 4/3/4
f 9/21/5 10/22/6 12/24/7
f 12/24/7 10/22/6 11/23/8
f 5/9/9 6/10/10 7/12/11
f 7/12/11 6/10/10 8/11/12
f 7/17/13 8/18/14 1/20/15
f 1/20/15 8/18/14 2/19/16
f 2/13/17 8/14/18 4/16/19
f 4/16/19 8/14/18 6/15/20
f 7/5/21 1/6/22 5/8/23
f 5/8/23 1/6/22 3/7/24
f 3/25/25 4/26/26 13/34/27
f 4/26/26 16/27/28 13/34/27
f 16/27/28 17/28/29 13/34/27
f 13/34/27 17/28/29 14/33/30
f 17/28/29 18/29/31 14/33/30
f 14/33/30 18/29/31 15/32/32
f 18/29/31 26/30/33 15/32/32
f 15/32/32 26/30/33 25/31/34
f 26/30/33 10/22/6 25/31/34
f 10/22/6 9/21/5 25/31/34
f 4/57/19 6/58/20 16/68/35
f 6/58/20 19/59/36 16/68/35
f 19/59/36 20/60/37 16/68/35
f 20/60/37 21/61/38 16/68/35
f 16/68/35 21/61/38 17/67/39
f 17/67/39 21/61/38 18/66/40
f 21/61/38 27/62/41 18/66/40
f 27/62/41 11/63/42 18/66/40
f 18/66/40 11/63/42 26/65/43
f 11/63/42 10/64/44 26/65/43
f 6/35/45 5/36/46 19/44/47
f 5/36/46 22/37/48 19/44/47
f 22/37/48 23/38/49 19/44/47
f 19/44/47 23/38/49 20/43/50
f 23/38/49 24/39/51 20/43/50
f 20/43/50 24/39/51 21/42/52
f 24/39/51 28/40/53 21/42/52
f 21/42/52 28/40/53 27/41/54
f 28/40/53 12/24/7 27/41/54
f 12/24/7 11/23/8 27/41/54
f 5/45/23 3/46/24 22/56/55
f 3/46/24 13/47/56 22/56/55
f 13/47/56 14/48/57 22/56/55
f 14/48/57 15/49/58 22/56/55
f 22/56/55 15/49/58 23/55/59
f 23/55/59 15/49/58 24/54/60
f 15/49/58 25/50/61 24/54/60
f 25/50/61 9/51/62 24/54/60
f 24/54/60 9/51/62 28/53/63
f 9/51/62 12/52/64 28/53/63
